# Alias OBJ Model File
# Exported from SketchUp, (c) 2000-2012 Trimble Navigation Limited
# File units = meters

mtllib b169ad6b-83a3-4a15-b15b-4e8a66fdb40a.mtl

g Mesh1 Model

usemtl LowerWalls
v 34.3603 0 -13.0884
vt 1352.77 0
vn 0 0 1
v 34.3603 1 -13.0884
vt 1352.77 39.3701
v 31.5603 1 -13.0884
vt 1242.53 39.3701
v 31.5603 0 -13.0884
vt 1242.53 0
f 1/1/1 2/2/1 3/3/1 4/4/1 

usemtl Doors
v 35.3603 0 -13.0884
vt 1392.14 0
v 35.3603 1 -13.0884
vt 1392.14 39.3701
v 35.3603 2.6 -13.0884
vt 1392.14 102.362
v 34.3603 2.6 -13.0884
vt 1352.77 102.362
f 1/1/1 5/5/1 6/6/1 7/7/1 8/8/1 2/2/1 

usemtl Floor
v 35.5103 0 -13.0884
vt -1398.04 515.29
vn 0 -1 -0
vt -1392.14 515.29
vt -1352.77 515.29
vt -1242.53 515.29
v 30.5603 0 -13.0884
vt -1203.16 515.29
v 25.0603 0 -13.0884
vt -986.626 515.29
v 24.0603 0 -13.0884
vt -947.256 515.29
v 21.8603 0 -13.0884
vt -860.642 515.29
v 21.8603 0 -13.2884
vt -860.642 523.164
v 21.8603 0 -14.2884
vt -860.642 562.534
v 21.8603 0 -19.3749
vt -860.642 762.79
v 22.0603 0 -19.3749
vt -868.516 762.79
v 23.0603 0 -19.3749
vt -907.886 762.79
v 23.2103 0 -19.3749
vt -913.792 762.79
v 23.2103 0 -14.4384
vt -913.792 568.44
v 26.3103 0 -14.4384
vt -1035.84 568.44
v 27.3103 0 -14.4384
vt -1075.21 568.44
v 32.1103 0 -14.4384
vt -1264.19 568.44
v 33.1103 0 -14.4384
vt -1303.56 568.44
v 35.5103 0 -14.4384
vt -1398.04 568.44
f 9/9/2 5/10/2 1/11/2 4/12/2 10/13/2 11/14/2 12/15/2 13/16/2 14/17/2 15/18/2 16/19/2 17/20/2 18/21/2 19/22/2 20/23/2 21/24/2 22/25/2 23/26/2 24/27/2 25/28/2 

usemtl LowerWalls
vt 1398.04 0
v 35.5103 1 -13.0884
vt 1398.04 39.3701
f 9/29/1 26/30/1 6/6/1 5/5/1 

vt 568.44 0
vn 1 0 -0
v 35.5103 1 -14.4384
vt 568.44 39.3701
vt 515.29 39.3701
vt 515.29 0
f 25/31/3 27/32/3 26/33/3 9/34/3 

vt -1303.56 0
vn 0 0 -1
v 33.1103 1 -14.4384
vt -1303.56 39.3701
vt -1398.04 39.3701
vt -1398.04 0
f 24/35/4 28/36/4 27/37/4 25/38/4 

usemtl Doors
vt -1264.19 0
v 32.1103 1 -14.4384
vt -1264.19 39.3701
v 32.1103 2.6 -14.4384
vt -1264.19 102.362
v 33.1103 2.6 -14.4384
vt -1303.56 102.362
f 24/35/4 23/39/4 29/40/4 30/41/4 31/42/4 28/36/4 

usemtl LowerWalls
vt -1075.21 0
v 27.3103 1 -14.4384
vt -1075.21 39.3701
f 22/43/4 32/44/4 29/40/4 23/39/4 

usemtl Doors
vt -1035.84 0
v 26.3103 1 -14.4384
vt -1035.84 39.3701
v 26.3103 2.6 -14.4384
vt -1035.84 102.362
v 27.3103 2.6 -14.4384
vt -1075.21 102.362
f 22/43/4 21/45/4 33/46/4 34/47/4 35/48/4 32/44/4 

usemtl LowerWalls
vt -913.792 0
v 23.2103 1 -14.4384
vt -913.792 39.3701
f 20/49/4 36/50/4 33/46/4 21/45/4 

vt 762.79 0
v 23.2103 1 -19.3749
vt 762.79 39.3701
f 19/51/3 37/52/3 36/32/3 20/31/3 

usemtl UpperWalls
vt -907.886 0
v 23.0603 2.6 -19.3749
vt -907.886 102.362
v 23.2103 2.6 -19.3749
vt -913.792 102.362
f 19/49/4 18/53/4 38/54/4 39/55/4 37/50/4 

usemtl Doors
v 22.0603 2.6 -19.3749
vt -868.516 102.362
vt -868.516 0
f 40/56/4 38/54/4 18/53/4 17/57/4 

usemtl Ceiling
vt 1392.14 515.29
vn 0 1 -0
v 35.5103 2.6 -13.0884
vt 1398.04 515.29
v 35.5103 2.6 -14.4384
vt 1398.04 568.44
vt 1303.56 568.44
vt 1264.19 568.44
vt 1075.21 568.44
vt 1035.84 568.44
v 23.2103 2.6 -14.4384
vt 913.792 568.44
vt 913.792 762.79
vt 907.886 762.79
vt 868.516 762.79
v 21.8603 2.6 -19.3749
vt 860.642 762.79
v 21.8603 2.6 -14.2884
vt 860.642 562.534
v 21.8603 2.6 -13.2884
vt 860.642 523.164
v 21.8603 2.6 -13.0884
vt 860.642 515.29
v 24.0603 2.6 -13.0884
vt 947.256 515.29
v 25.0603 2.6 -13.0884
vt 986.626 515.29
v 30.5603 2.6 -13.0884
vt 1203.16 515.29
v 31.5603 2.6 -13.0884
vt 1242.53 515.29
vt 1352.77 515.29
f 7/58/5 41/59/5 42/60/5 31/61/5 30/62/5 35/63/5 34/64/5 43/65/5 39/66/5 38/67/5 40/68/5 44/69/5 45/70/5 46/71/5 47/72/5 48/73/5 49/74/5 50/75/5 51/76/5 8/77/5 

usemtl UpperWalls
vt 1398.04 102.362
f 7/7/1 6/6/1 26/30/1 41/78/1 

vt 515.29 102.362
vt 568.44 102.362
f 41/79/3 26/33/3 27/32/3 42/80/3 

vt -1398.04 102.362
f 42/81/4 27/37/4 28/36/4 31/42/4 

f 30/41/4 29/40/4 32/44/4 35/48/4 

f 34/47/4 33/46/4 36/50/4 43/55/4 

vt 762.79 102.362
f 43/80/3 36/32/3 37/52/3 39/82/3 

vt -860.642 102.362
vt -860.642 0
v 21.8603 1 -19.3749
vt -860.642 39.3701
f 44/83/4 40/56/4 17/57/4 16/84/4 52/85/4 

usemtl LowerWalls
vt -562.534 0
vn -1 0 -0
v 21.8603 1 -14.2884
vt -562.534 39.3701
v 21.8603 1 -14.4384
vt -568.44 39.3701
vt -762.79 39.3701
vt -762.79 0
f 15/86/6 53/87/6 54/88/6 52/89/6 16/90/6 

usemtl Doors
vt -523.164 102.362
vt -562.534 102.362
vt -523.164 0
v 21.8603 1 -13.2884
vt -523.164 39.3701
f 46/91/6 45/92/6 53/87/6 15/86/6 14/93/6 55/94/6 

usemtl UpperWalls
vt -762.79 102.362
f 44/95/6 52/89/6 54/88/6 53/87/6 45/92/6 

usemtl LowerWalls
vt -515.29 0
v 21.8603 1 -13.0884
vt -515.29 39.3701
f 13/96/6 56/97/6 55/94/6 14/93/6 

vt 947.256 0
v 24.0603 1 -13.0884
vt 947.256 39.3701
vt 860.642 39.3701
vt 860.642 0
f 12/98/1 57/99/1 56/100/1 13/101/1 

usemtl Doors
vt 986.626 0
v 25.0603 1 -13.0884
vt 986.626 39.3701
vt 986.626 102.362
vt 947.256 102.362
f 12/98/1 11/102/1 58/103/1 49/104/1 48/105/1 57/99/1 

usemtl LowerWalls
vt 1203.16 0
v 30.5603 1 -13.0884
vt 1203.16 39.3701
f 10/106/1 59/107/1 58/103/1 11/102/1 

usemtl Doors
vt 1242.53 102.362
vt 1203.16 102.362
f 10/106/1 4/4/1 3/3/1 51/108/1 50/109/1 59/107/1 

usemtl UpperWalls
f 51/108/1 3/3/1 2/2/1 8/8/1 

f 49/104/1 58/103/1 59/107/1 50/109/1 

vt 860.642 102.362
f 47/110/1 56/100/1 57/99/1 48/105/1 

vt -515.29 102.362
f 46/91/6 55/94/6 56/97/6 47/111/6 

