# Blender 4.5.3 LTS
# www.blender.org
mtllib 3x3x3b.mtl
o RoomVolume
v 0.000000 0.000000 0.000000
v 3.000000 0.000000 0.000000
v 0.000000 0.000000 -3.000000
v 3.000000 0.000000 -3.000000
v 0.000000 3.000000 0.000000
v 3.000000 3.000000 0.000000
v 0.000000 3.000000 -3.000000
v 3.000000 3.000000 -3.000000
vn -0.0000 -1.0000 -0.0000
vn -0.0000 1.0000 -0.0000
vn 1.0000 -0.0000 -0.0000
vn -1.0000 -0.0000 -0.0000
vn -0.0000 -0.0000 -1.0000
vn -0.0000 -0.0000 1.0000
vt 0.000000 0.000000
vt 0.000000 1.000000
vt 1.000000 1.000000
vt 1.000000 0.000000
s 0
g RoomVolume_WallRight
usemtl WallRight
f 3/2/4 1/1/4 5/1/4 7/2/4
g RoomVolume_Ceiling
usemtl Ceiling
f 5/1/2 6/4/2 8/3/2 7/2/2
g RoomVolume_Floor
usemtl Floor
f 1/1/1 3/2/1 4/3/1 2/4/1
g RoomVolume_WallLeft
usemtl WallLeft
f 2/4/3 4/3/3 8/3/3 6/4/3
g RoomVolume_WallFront
usemtl WallFront
f 4/3/5 3/2/5 7/2/5 8/3/5
g RoomVolume_WallBack
usemtl WallBack
f 1/1/6 2/4/6 6/4/6 5/1/6
