# Alias OBJ Model File
# Exported from SketchUp, (c) 2000-2012 Trimble Navigation Limited
# File units = meters

mtllib 3c13f6fd-8108-474e-8490-789d4d290866.mtl

g Mesh1 Model

usemtl Plaster
v 0 5.8 -0
vt 0 0
vn 0 -1 -0
v 2.88765e-16 5.8 -1.8
vt -1.13687e-14 70.8661
v 11 5.8 -1.8
vt -433.071 70.8661
v 11 5.8 -0
vt -433.071 0
v 8 5.8 -0
vt -314.961 0
v 3.2 5.8 -0
vt -125.984 0
f 1/1/1 2/2/1 3/3/1 4/4/1 5/5/1 6/6/1 

usemtl Glass
vt 70.8661 228.346
vn 1 3.24302e-34 1.60425e-16
vt 0 228.346
v 0 0 -0
v 2.88765e-16 0 -1.8
vt 70.8661 -6.07716e-64
v 2.88765e-16 5.3 -1.8
vt 70.8661 208.661
f 2/7/2 1/8/2 7/1/2 8/9/2 9/10/2 

v 3.2 0 -0
vn 0 0 -1
vt -125.984 228.346
f 10/6/3 7/1/3 1/8/3 6/11/3 

usemtl Pavement
v 1.44382e-15 0 -9
vt 5.68434e-14 354.331
vn 0 1 -0
v 1.2834e-15 0 -8
vt 5.05275e-14 314.961
vt 1.13687e-14 70.8661
vt 125.984 0
v 8 0 -0
vt 314.961 0
v 11 0 -0
vt 433.071 0
v 11 0 -1.8
vt 433.071 70.8661
v 11 0 -8
vt 433.071 314.961
v 11 0 -9
vt 433.071 354.331
f 11/12/4 12/13/4 8/14/4 7/1/4 10/15/4 13/16/4 14/17/4 15/18/4 16/19/4 17/20/4 

usemtl Glass
vn 1 0 1.60425e-16
vt 354.331 0
v 1.44382e-15 5.8 -9
vt 354.331 228.346
v 1.2834e-15 5.8 -8
vt 314.961 228.346
v 7.86081e-16 5.3 -8
vt 314.961 208.661
f 12/16/5 11/21/5 18/22/5 19/23/5 20/24/5 

vt 5.68434e-14 0
vn 0 0 1
v 11 5.8 -9
vt 433.071 228.346
vt 5.68434e-14 228.346
f 11/25/6 17/17/6 21/26/6 18/27/6 

v 11 5.8 -8
vt -314.961 228.346
vn -1 0 -0
vt -354.331 228.346
vt -354.331 0
v 11 5.3 -8
vt -314.961 208.661
f 22/28/7 21/29/7 17/30/7 16/5/7 23/31/7 

usemtl Plaster
vt -433.071 354.331
vt -433.071 314.961
vt -5.05275e-14 314.961
vt -5.68434e-14 354.331
f 21/32/1 22/33/1 19/34/1 18/35/1 

vt -433.071 208.661
vt -3.09481e-14 208.661
vt -5.05275e-14 228.346
vt -433.071 228.346
f 23/36/3 20/37/3 19/38/3 22/39/3 

usemtl Ceiling
v 11 5.3 -1.8
vn -1.31257e-16 -1 -9.24977e-33
vt 1.60195e-14 70.8661
vt -3.55989e-15 314.961
f 24/3/8 9/40/8 20/41/8 23/33/8 

usemtl Plaster
vt 1.25314e-14 208.661
vn 1.64071e-17 -3.60956e-16 1
vt 433.071 208.661
vt 1.25314e-14 228.346
f 9/42/9 24/43/9 3/26/9 2/44/9 

usemtl Glass
vt -70.8661 0
vt -70.8661 228.346
vt -70.8661 208.661
f 15/45/7 14/1/7 4/8/7 3/46/7 24/47/7 

f 5/28/3 4/39/3 14/4/3 13/5/3 

usemtl WallAbsorber
f 13/5/3 10/6/3 6/11/3 5/28/3 

usemtl Plaster
f 15/45/7 24/47/7 23/31/7 16/5/7 

usemtl WallAbsorber
vn 1 4.69167e-17 1.20319e-16
vt 70.8661 -1.33345e-31
vt 314.961 -5.92645e-31
f 9/10/10 8/48/10 12/49/10 20/24/10 

