# Alias OBJ Model File
# Exported from SketchUp, (c) 2000-2012 Trimble Navigation Limited
# File units = meters

mtllib a53d293b-53a3-4a1f-8053-634e60c3d95d.mtl

g Mesh1 Model

usemtl WallFront
v 3 0 -0
vt -118.11 0
vn 0 0 -1
v 0 0 -0
vt 0 0
v 0 3 -0
vt 0 118.11
v 3 3 -0
vt -118.11 118.11
f 1/1/1 2/2/1 3/3/1 4/4/1 

usemtl Floor
v 0 0 -3
vn 0 1 -0
vt 118.11 0
v 3 0 -3
vt 118.11 118.11
f 5/3/2 2/2/2 1/5/2 6/6/2 

usemtl WallLeft
vn 1 0 -0
v 0 3 -3
f 2/2/3 5/5/3 7/6/3 3/3/3 

usemtl WallBack
vn 0 0 1
v 3 3 -3
f 5/2/4 6/5/4 8/6/4 7/3/4 

usemtl WallRight
vn -1 0 -0
f 6/1/5 1/2/5 4/3/5 8/4/5 

usemtl Ceiling
vn 0 -1 -0
f 3/2/6 7/3/6 8/4/6 4/1/6 

