# Blender 4.5.3 LTS
# www.blender.org
mtllib SquashRoomsB.mtl
o SquashRooms
v 0.000000 -0.000001 -9.800000
v 0.000000 0.000000 0.000000
v 6.400000 0.000000 0.000000
v 6.400000 -0.000001 -9.800000
v 0.000000 2.200000 -0.000000
v 0.000000 4.349999 -9.800000
v 6.400000 2.200000 -0.000000
v 6.400000 4.349999 -9.800000
v 6.650000 4.349999 -9.800000
v 6.650000 -0.000001 -9.800000
v 13.050000 -0.000001 -9.800000
v 13.050000 4.349999 -9.800000
v 13.050000 6.099999 -9.800000
v 6.650000 6.099999 -9.800000
v 6.650000 5.349999 -9.800000
v 6.400000 5.349999 -9.800000
v 6.400000 6.099999 -9.800000
v 0.000000 6.099999 -9.800000
v 6.650000 2.200000 -0.000000
v 6.400000 2.800000 -0.000000
v 6.400000 4.300000 -0.000000
v 6.400000 5.350000 -0.000000
v 6.650000 5.350000 -0.000000
v 6.650000 4.300000 -0.000000
v 6.650000 2.800000 -0.000000
v 0.000000 2.800000 -0.000000
v 0.000000 6.100000 -1.450001
v 0.000000 6.100000 -0.750000
v 0.000000 5.850000 -0.750000
v 0.000000 5.850000 -0.700000
v 0.000000 6.100000 -0.700000
v 0.000000 6.100000 -0.000000
v 0.000000 5.700000 -0.000000
v 0.000000 4.300000 -0.000000
v 0.000000 6.099999 -9.000000
v 0.000000 5.849999 -9.000000
v 0.000000 5.849999 -8.950000
v 0.000000 6.099999 -8.950000
v 0.000000 6.099999 -8.250000
v 0.000000 5.849999 -8.250000
v 0.000000 5.849999 -8.200000
v 0.000000 6.099999 -8.200000
v 0.000000 6.099999 -7.500000
v 0.000000 5.849999 -7.500000
v 0.000000 5.849999 -7.450000
v 0.000000 6.099999 -7.450000
v 0.000000 6.099999 -6.750000
v 0.000000 5.849999 -6.750000
v 0.000000 5.849999 -6.700000
v 0.000000 6.099999 -6.700000
v 0.000000 6.099999 -6.000000
v 0.000000 5.849999 -6.000000
v 0.000000 5.849999 -5.950000
v 0.000000 6.099999 -5.950000
v 0.000000 6.099999 -5.250000
v 0.000000 5.849999 -5.250000
v 0.000000 5.849999 -5.200000
v 0.000000 6.099999 -5.200000
v 0.000000 6.099999 -4.500000
v 0.000000 5.849999 -4.500000
v 0.000000 5.849999 -4.450000
v 0.000000 6.099999 -4.450000
v 0.000000 6.099999 -3.750000
v 0.000000 5.849999 -3.750000
v 0.000000 5.849999 -3.700001
v 0.000000 6.099999 -3.700001
v 0.000000 6.100000 -3.000000
v 0.000000 5.850000 -3.000000
v 0.000000 5.850000 -2.950001
v 0.000000 6.100000 -2.950001
v 0.000000 6.100000 -2.250000
v 0.000000 5.850000 -2.250000
v 0.000000 5.850000 -2.200001
v 0.000000 6.100000 -2.200001
v 0.000000 6.100000 -1.500000
v 0.000000 5.850000 -1.500000
v 0.000000 5.850000 -1.450001
v 6.400000 6.100000 -1.450001
v 6.400000 6.100000 -0.750000
v 6.400000 5.700000 -0.000000
v 6.400000 6.100000 -0.000000
v 6.400000 6.100000 -0.700000
v 6.400000 5.850000 -0.700000
v 6.400000 5.850000 -0.750000
v 6.400000 5.850000 -1.450001
v 6.400000 5.850000 -1.500000
v 6.400000 6.100000 -1.500000
v 6.400000 6.100000 -2.200001
v 6.400000 5.850000 -2.200001
v 6.400000 5.850000 -2.250000
v 6.400000 6.100000 -2.250000
v 6.400000 6.100000 -2.950001
v 6.400000 5.850000 -2.950001
v 6.400000 5.850000 -3.000000
v 6.400000 6.100000 -3.000000
v 6.400000 6.099999 -3.700001
v 6.400000 5.849999 -3.700001
v 6.400000 5.849999 -3.750000
v 6.400000 6.099999 -3.750000
v 6.400000 6.099999 -4.450000
v 6.400000 5.849999 -4.450000
v 6.400000 5.849999 -4.500000
v 6.400000 6.099999 -4.500000
v 6.400000 6.099999 -5.200000
v 6.400000 5.849999 -5.200000
v 6.400000 5.849999 -5.250000
v 6.400000 6.099999 -5.250000
v 6.400000 6.099999 -5.950000
v 6.400000 5.849999 -5.950000
v 6.400000 5.849999 -6.000000
v 6.400000 6.099999 -6.000000
v 6.400000 6.099999 -6.700000
v 6.400000 5.849999 -6.700000
v 6.400000 5.849999 -6.750000
v 6.400000 6.099999 -6.750000
v 6.400000 6.099999 -7.450000
v 6.400000 5.849999 -7.450000
v 6.400000 5.849999 -7.500000
v 6.400000 6.099999 -7.500000
v 6.400000 6.099999 -8.200000
v 6.400000 5.849999 -8.200000
v 6.400000 5.849999 -8.250000
v 6.400000 6.099999 -8.250000
v 6.400000 6.099999 -8.950000
v 6.400000 5.849999 -8.950000
v 6.400000 5.849999 -9.000000
v 6.400000 6.099999 -9.000000
v 6.650000 6.099999 -8.950000
v 6.650000 6.099999 -8.250000
v 6.650000 5.849999 -8.250000
v 6.650000 5.849999 -8.200000
v 6.650000 6.099999 -8.200000
v 6.650000 6.099999 -7.500000
v 6.650000 5.849999 -7.500000
v 6.650000 5.849999 -7.450000
v 6.650000 6.099999 -7.450000
v 6.650000 6.099999 -6.750000
v 6.650000 5.849999 -6.750000
v 6.650000 5.849999 -6.700000
v 6.650000 6.099999 -6.700000
v 6.650000 6.099999 -6.000000
v 6.650000 5.849999 -6.000000
v 6.650000 5.849999 -5.950000
v 6.650000 6.099999 -5.950000
v 6.650000 6.099999 -5.250000
v 6.650000 5.849999 -5.250000
v 6.650000 5.849999 -5.200000
v 6.650000 6.099999 -5.200000
v 6.650000 6.099999 -4.500000
v 6.650000 5.849999 -4.500000
v 6.650000 5.849999 -4.450000
v 6.650000 6.099999 -4.450000
v 6.650000 6.099999 -3.750000
v 6.650000 5.849999 -3.750000
v 6.650000 5.849999 -3.700001
v 6.650000 6.099999 -3.700001
v 6.650000 6.100000 -3.000000
v 6.650000 5.850000 -3.000000
v 6.650000 5.850000 -2.950001
v 6.650000 6.100000 -2.950001
v 6.650000 6.100000 -2.250000
v 6.650000 5.850000 -2.250000
v 6.650000 5.850000 -2.200001
v 6.650000 6.100000 -2.200001
v 6.650000 6.100000 -1.500000
v 6.650000 5.850000 -1.500000
v 6.650000 5.850000 -1.450001
v 6.650000 6.100000 -1.450001
v 6.650000 6.100000 -0.750000
v 6.650000 5.850000 -0.750000
v 6.650000 5.850000 -0.700000
v 6.650000 6.100000 -0.700000
v 6.650000 6.100000 -0.000000
v 6.650000 5.700000 -0.000000
v 6.650000 6.099999 -9.000000
v 6.650000 5.849999 -9.000000
v 6.650000 5.849999 -8.950000
v 13.050000 6.099999 -8.950000
v 13.050000 6.099999 -8.250000
v 13.050000 5.849999 -8.950000
v 13.050000 5.849999 -9.000000
v 13.050000 6.100000 -0.750000
v 13.050000 6.100000 -1.450001
v 13.050000 5.850000 -1.450001
v 13.050000 5.850000 -1.500000
v 13.050000 6.100000 -1.500000
v 13.050000 6.100000 -2.200001
v 13.050000 5.850000 -2.200001
v 13.050000 5.850000 -2.250000
v 13.050000 6.100000 -2.250000
v 13.050000 6.100000 -2.950001
v 13.050000 5.850000 -2.950001
v 13.050000 5.850000 -3.000000
v 13.050000 6.100000 -3.000000
v 13.050000 6.099999 -3.700001
v 13.050000 5.849999 -3.700001
v 13.050000 5.849999 -3.750000
v 13.050000 6.099999 -3.750000
v 13.050000 6.099999 -4.450000
v 13.050000 5.849999 -4.450000
v 13.050000 5.849999 -4.500000
v 13.050000 6.099999 -4.500000
v 13.050000 6.099999 -5.200000
v 13.050000 5.849999 -5.200000
v 13.050000 5.849999 -5.250000
v 13.050000 6.099999 -5.250000
v 13.050000 6.099999 -5.950000
v 13.050000 5.849999 -5.950000
v 13.050000 5.849999 -6.000000
v 13.050000 6.099999 -6.000000
v 13.050000 6.099999 -6.700000
v 13.050000 5.849999 -6.700000
v 13.050000 5.849999 -6.750000
v 13.050000 6.099999 -6.750000
v 13.050000 6.099999 -7.450000
v 13.050000 5.849999 -7.450000
v 13.050000 5.849999 -7.500000
v 13.050000 6.099999 -7.500000
v 13.050000 6.099999 -8.200000
v 13.050000 5.849999 -8.200000
v 13.050000 5.849999 -8.250000
v 13.050000 6.099999 -9.000000
v 13.050000 2.200000 -0.000000
v 13.050000 2.800000 -0.000000
v 13.050000 4.300000 -0.000000
v 13.050000 5.700000 -0.000000
v 13.050000 6.100000 -0.000000
v 13.050000 6.100000 -0.700000
v 13.050000 5.850000 -0.700000
v 13.050000 5.850000 -0.750000
v 13.050000 5.700000 0.150000
v 6.650000 5.700000 0.150000
v 13.050000 4.300000 0.150000
v 6.650000 4.300000 0.150000
v 13.050000 0.000000 0.000000
v 6.650000 0.000000 0.000000
v 6.400000 4.300000 0.150000
v 6.400000 5.700000 0.150000
v 0.000000 4.300000 0.150000
v 0.000000 5.700000 0.150000
vn -0.0000 1.0000 -0.0000
vn 1.0000 -0.0000 -0.0000
vn -0.0000 -0.0000 -1.0000
vn -1.0000 -0.0000 -0.0000
vn -0.0000 -0.0000 1.0000
vn -0.0000 0.9768 0.2143
vn -0.0000 -1.0000 -0.0000
vt 0.000000 385.826996
vt 0.000000 0.000000
vt 251.968994 0.000000
vt 251.968994 385.826996
vt 0.000000 86.614197
vt 385.826996 0.000000
vt 385.826996 171.259995
vt -251.968994 86.614197
vt -251.968994 0.000000
vt -385.826996 171.259995
vt -385.826996 0.000000
vt 251.968994 171.259995
vt 261.811005 171.259995
vt 261.811005 0.000000
vt 513.780029 0.000000
vt 513.780029 171.259995
vt 513.780029 240.156998
vt 261.811005 240.156998
vt 261.811005 210.630005
vt 251.968994 210.630005
vt 251.968994 240.156998
vt 0.000000 240.156998
vt 0.000000 171.259995
vt 251.968994 18.560699
vt 261.811005 18.560699
vt 261.811005 413.562988
vt 251.968994 413.562988
vt -261.811005 86.614197
vt -251.968994 110.236000
vt -251.968994 169.291000
vt -251.968994 210.630005
vt -261.811005 210.630005
vt -261.811005 169.291000
vt -261.811005 110.236000
vt 0.000000 110.236000
vt 57.086601 240.156998
vt 29.527599 240.156998
vt 29.527599 230.315002
vt 27.559099 230.315002
vt 27.559099 240.156998
vt 0.000000 224.408997
vt 0.000000 169.291000
vt 385.826996 240.156998
vt 354.330994 240.156998
vt 354.330994 230.315002
vt 352.362000 230.315002
vt 352.362000 240.156998
vt 324.803009 240.156998
vt 324.803009 230.315002
vt 322.834991 230.315002
vt 322.834991 240.156998
vt 295.276001 240.156998
vt 295.276001 230.315002
vt 293.307007 230.315002
vt 293.307007 240.156998
vt 265.747986 240.156998
vt 265.747986 230.315002
vt 263.779999 230.315002
vt 263.779999 240.156998
vt 236.220001 240.156998
vt 236.220001 230.315002
vt 234.251999 230.315002
vt 234.251999 240.156998
vt 206.692993 240.156998
vt 206.692993 230.315002
vt 204.723999 230.315002
vt 204.723999 240.156998
vt 177.164993 240.156998
vt 177.164993 230.315002
vt 175.197006 230.315002
vt 175.197006 240.156998
vt 147.638000 240.156998
vt 147.638000 230.315002
vt 145.669006 230.315002
vt 145.669006 240.156998
vt 118.110001 240.156998
vt 118.110001 230.315002
vt 116.141998 230.315002
vt 116.141998 240.156998
vt 88.582703 240.156998
vt 88.582703 230.315002
vt 86.614197 230.315002
vt 86.614197 240.156998
vt 59.055099 240.156998
vt 59.055099 230.315002
vt 57.086601 230.315002
vt -251.968994 57.086601
vt -251.968994 29.527599
vt 0.000000 29.527599
vt 0.000000 57.086601
vt -385.826996 210.630005
vt -0.000000 210.630005
vt -0.000000 224.408997
vt -0.000000 240.156998
vt -27.559099 240.156998
vt -27.559099 230.315002
vt -29.527599 230.315002
vt -29.527599 240.156998
vt -57.086601 240.156998
vt -57.086601 230.315002
vt -59.055099 230.315002
vt -59.055099 240.156998
vt -86.614197 240.156998
vt -86.614197 230.315002
vt -88.582703 230.315002
vt -88.582703 240.156998
vt -116.141998 240.156998
vt -116.141998 230.315002
vt -118.110001 230.315002
vt -118.110001 240.156998
vt -145.669006 240.156998
vt -145.669006 230.315002
vt -147.638000 230.315002
vt -147.638000 240.156998
vt -175.197006 240.156998
vt -175.197006 230.315002
vt -177.164993 230.315002
vt -177.164993 240.156998
vt -204.723999 240.156998
vt -204.723999 230.315002
vt -206.692993 230.315002
vt -206.692993 240.156998
vt -234.251999 240.156998
vt -234.251999 230.315002
vt -236.220001 230.315002
vt -236.220001 240.156998
vt -263.779999 240.156998
vt -263.779999 230.315002
vt -265.747986 230.315002
vt -265.747986 240.156998
vt -293.307007 240.156998
vt -293.307007 230.315002
vt -295.276001 230.315002
vt -295.276001 240.156998
vt -322.834991 240.156998
vt -322.834991 230.315002
vt -324.803009 230.315002
vt -324.803009 240.156998
vt -352.362000 240.156998
vt -352.362000 230.315002
vt -354.330994 230.315002
vt -354.330994 240.156998
vt -385.826996 240.156998
vt -251.968994 385.826996
vt -261.811005 385.826996
vt -261.811005 0.000000
vt 0.000000 240.156998
vt 0.000000 224.408997
vt 0.000000 210.630005
vt 385.826996 210.630005
vt -261.811005 324.803009
vt -261.811005 352.362000
vt -513.780029 352.362000
vt -513.780029 324.803009
vt 261.811005 230.315002
vt 513.780029 230.315002
vt -513.780029 354.330994
vt -261.811005 354.330994
vt 0.000000 86.614197
vt 0.000000 110.236000
vt 0.000000 169.291000
vt 0.000000 224.408997
vt 0.000000 240.156998
vt -261.811005 29.527599
vt -261.811005 57.086601
vt -513.780029 57.086601
vt -513.780029 29.527599
vt -513.780029 59.055099
vt -261.811005 59.055099
vt -261.811005 240.156998
vt -513.780029 240.156998
vt -513.780029 230.315002
vt -261.811005 230.315002
vt -513.780029 86.614197
vt -513.780029 88.582703
vt -261.811005 88.582703
vt -261.811005 116.141998
vt -513.780029 116.141998
vt -513.780029 118.110001
vt -261.811005 118.110001
vt -261.811005 145.669006
vt -513.780029 145.669006
vt -513.780029 147.638000
vt -261.811005 147.638000
vt -261.811005 175.197006
vt -513.780029 175.197006
vt -513.780029 177.164993
vt -261.811005 177.164993
vt -261.811005 204.723999
vt -513.780029 204.723999
vt -513.780029 206.692993
vt -261.811005 206.692993
vt -261.811005 234.251999
vt -513.780029 234.251999
vt -513.780029 236.220001
vt -261.811005 236.220001
vt -261.811005 263.779999
vt -513.780029 263.779999
vt -513.780029 265.747986
vt -261.811005 265.747986
vt -261.811005 293.307007
vt -513.780029 293.307007
vt -513.780029 295.276001
vt -261.811005 295.276001
vt -261.811005 322.834991
vt -513.780029 322.834991
vt -513.780029 27.559099
vt -261.811005 27.559099
vt -513.780029 0.000000
vt -261.811005 224.408997
vt -513.780029 224.408997
vt -513.780029 -5.905510
vt -261.811005 -5.905510
vt -513.780029 169.291000
vt 5.905510 169.291000
vt 5.905510 224.408997
vt 261.811005 -5.905510
vt 513.780029 -5.905510
vt -513.780029 110.236000
vt 513.780029 385.826996
vt 261.811005 385.826996
vt -5.905510 169.291000
vt 0.000000 210.630005
vt -5.905510 224.408997
vt -513.780029 385.826996
vt 0.000000 -5.905510
vt 251.968994 -5.905510
vt -251.968994 224.408997
vt -251.968994 -5.905510
vt -251.968994 240.156998
vt -251.968994 27.559099
vt 0.000000 27.559099
vt 0.000000 230.315002
vt 251.968994 230.315002
vt -0.000000 240.156998
vt -251.968994 230.315002
vt -0.000000 230.315002
vt -251.968994 59.055099
vt 0.000000 59.055099
vt -0.000000 240.156998
vt -0.000000 230.315002
vt -251.968994 88.582703
vt 0.000000 88.582703
vt -251.968994 116.141998
vt 0.000000 116.141998
vt -251.968994 118.110001
vt 0.000000 118.110001
vt -251.968994 145.669006
vt 0.000000 145.669006
vt -251.968994 147.638000
vt 0.000000 147.638000
vt -251.968994 175.197006
vt 0.000000 175.197006
vt -251.968994 177.164993
vt 0.000000 177.164993
vt -251.968994 204.723999
vt 0.000000 204.723999
vt -251.968994 206.692993
vt 0.000000 206.692993
vt -251.968994 234.251999
vt 0.000000 234.251999
vt -251.968994 236.220001
vt 0.000000 236.220001
vt -251.968994 263.779999
vt 0.000000 263.779999
vt -251.968994 265.747986
vt 0.000000 265.747986
vt -251.968994 293.307007
vt 0.000000 293.307007
vt -251.968994 295.276001
vt 0.000000 295.276001
vt -251.968994 322.834991
vt 0.000000 322.834991
vt -251.968994 324.803009
vt 0.000000 324.803009
vt -251.968994 352.362000
vt 0.000000 352.362000
vt -251.968994 354.330994
vt 0.000000 354.330994
s 1
g SquashRooms_WoodFloor
usemtl WoodFloor
f 1/1/1 2/2/1 3/3/1 4/4/1
f 11/220/1 10/221/1 236/14/1 235/15/1
g SquashRooms_Plaster
usemtl Plaster
f 5/5/2 2/2/2 1/6/2 6/7/2
f 8/10/4 4/11/4 3/2/4 7/5/4
f 8/12/5 9/13/5 10/14/5 11/15/5 12/16/5 13/17/5 14/18/5 15/19/5 16/20/5 17/21/5 18/22/5 6/23/5 1/2/5 4/3/5
f 7/24/6 19/25/6 9/26/6 8/27/6
f 19/28/3 7/8/3 20/29/3 21/30/3 22/31/3 23/32/3 24/33/3 25/34/3
f 16/91/4 22/92/4 80/93/4 81/94/4 82/95/4 83/96/4 84/97/4 79/98/4 78/99/4 85/100/4 86/101/4 87/102/4 88/103/4 89/104/4 90/105/4 91/106/4 92/107/4 93/108/4 94/109/4 95/110/4 96/111/4 97/112/4 98/113/4 99/114/4 100/115/4 101/116/4 102/117/4 103/118/4 104/119/4 105/120/4 106/121/4 107/122/4 108/123/4 109/124/4 110/125/4 111/126/4 112/127/4 113/128/4 114/129/4 115/130/4 116/131/4 117/132/4 118/133/4 119/134/4 120/135/4 121/136/4 122/137/4 123/138/4 124/139/4 125/140/4 126/141/4 127/142/4 17/143/4
f 16/144/7 15/145/7 23/146/7 22/9/7
f 128/47/2 129/48/2 130/49/2 131/50/2 132/51/2 133/52/2 134/53/2 135/54/2 136/55/2 137/56/2 138/57/2 139/58/2 140/59/2 141/60/2 142/61/2 143/62/2 144/63/2 145/64/2 146/65/2 147/66/2 148/67/2 149/68/2 150/69/2 151/70/2 152/71/2 153/72/2 154/73/2 155/74/2 156/75/2 157/76/2 158/77/2 159/78/2 160/79/2 161/80/2 162/81/2 163/82/2 164/83/2 165/84/2 166/85/2 167/86/2 168/36/2 169/37/2 170/38/2 171/39/2 172/40/2 173/147/2 174/148/2 23/149/2 15/150/2 14/43/2 175/44/2 176/45/2 177/46/2
f 174/210/3 173/170/3 227/171/3 226/211/3
f 231/212/7 232/213/7 174/146/7 226/209/7
f 225/42/4 233/215/4 231/216/4 226/41/4
f 234/217/1 233/218/1 225/15/1 24/14/1
f 225/214/3 224/219/3 25/34/3 24/33/3
f 235/2/4 223/5/4 12/10/4 11/11/4
f 10/6/2 9/7/2 19/5/2 236/2/2
f 234/222/2 24/42/2 23/223/2 174/41/2 232/224/2
f 21/42/4 237/215/4 238/216/4 80/41/4 22/223/4
f 239/226/1 237/227/1 21/3/1 34/2/1
f 238/229/7 240/226/7 33/2/7 80/9/7
f 239/222/2 34/42/2 33/41/2 240/224/2
f 33/41/3 32/22/3 81/230/3 80/228/3
f 21/30/3 20/29/3 26/35/3 34/42/3
g SquashRooms_Glass
usemtl Glass
f 7/8/3 3/9/3 2/2/3 5/5/3
f 232/210/3 231/211/3 233/214/3 234/33/3
f 223/174/3 235/209/3 236/146/3 19/28/3
f 240/41/3 238/228/3 237/30/3 239/42/3
g SquashRooms_Absorption1
usemtl Absorption1
f 20/29/3 7/8/3 5/5/3 26/35/3
f 224/219/3 223/174/3 19/28/3 25/34/3
g SquashRooms_Brick
usemtl Brick
f 27/36/2 28/37/2 29/38/2 30/39/2 31/40/2 32/22/2 33/41/2 34/42/2 26/35/2 5/5/2 6/7/2 18/43/2 35/44/2 36/45/2 37/46/2 38/47/2 39/48/2 40/49/2 41/50/2 42/51/2 43/52/2 44/53/2 45/54/2 46/55/2 47/56/2 48/57/2 49/58/2 50/59/2 51/60/2 52/61/2 53/62/2 54/63/2 55/64/2 56/65/2 57/66/2 58/67/2 59/68/2 60/69/2 61/70/2 62/71/2 63/72/2 64/73/2 65/74/2 66/75/2 67/76/2 68/77/2 69/78/2 70/79/2 71/80/2 72/81/2 73/82/2 74/83/2 75/84/2 76/85/2 77/86/2
f 182/98/4 183/99/4 184/100/4 185/101/4 186/102/4 187/103/4 188/104/4 189/105/4 190/106/4 191/107/4 192/108/4 193/109/4 194/110/4 195/111/4 196/112/4 197/113/4 198/114/4 199/115/4 200/116/4 201/117/4 202/118/4 203/119/4 204/120/4 205/121/4 206/122/4 207/123/4 208/124/4 209/125/4 210/126/4 211/127/4 212/128/4 213/129/4 214/130/4 215/131/4 216/132/4 217/133/4 218/134/4 219/135/4 220/136/4 221/137/4 179/138/4 178/139/4 180/140/4 181/141/4 222/142/4 13/143/4 12/10/4 223/159/4 224/160/4 225/161/4 226/162/4 227/163/4 228/95/4 229/96/4 230/97/4
g SquashRooms_WoodCeiling
usemtl WoodCeiling
f 78/87/7 79/88/7 28/89/7 27/90/7
f 129/151/7 128/152/7 178/153/7 179/154/7
f 178/17/5 128/18/5 177/155/5 180/156/5
f 181/157/7 180/153/7 177/152/7 176/158/7
f 169/164/7 168/165/7 183/166/7 182/167/7
f 183/17/5 168/18/5 167/155/5 184/156/5
f 185/168/7 184/166/7 167/165/7 166/169/7
f 165/170/3 186/171/3 185/172/3 166/173/3
f 165/169/7 164/28/7 187/174/7 186/168/7
f 187/17/5 164/18/5 163/155/5 188/156/5
f 189/175/7 188/174/7 163/28/7 162/176/7
f 161/170/3 190/171/3 189/172/3 162/173/3
f 161/176/7 160/177/7 191/178/7 190/175/7
f 191/17/5 160/18/5 159/155/5 192/156/5
f 193/179/7 192/178/7 159/177/7 158/180/7
f 157/170/3 194/171/3 193/172/3 158/173/3
f 157/180/7 156/181/7 195/182/7 194/179/7
f 195/17/5 156/18/5 155/155/5 196/156/5
f 197/183/7 196/182/7 155/181/7 154/184/7
f 153/170/3 198/171/3 197/172/3 154/173/3
f 153/184/7 152/185/7 199/186/7 198/183/7
f 199/17/5 152/18/5 151/155/5 200/156/5
f 201/187/7 200/186/7 151/185/7 150/188/7
f 149/170/3 202/171/3 201/172/3 150/173/3
f 149/188/7 148/189/7 203/190/7 202/187/7
f 203/17/5 148/18/5 147/155/5 204/156/5
f 205/191/7 204/190/7 147/189/7 146/192/7
f 145/170/3 206/171/3 205/172/3 146/173/3
f 145/192/7 144/193/7 207/194/7 206/191/7
f 207/17/5 144/18/5 143/155/5 208/156/5
f 209/195/7 208/194/7 143/193/7 142/196/7
f 141/170/3 210/171/3 209/172/3 142/173/3
f 141/196/7 140/197/7 211/198/7 210/195/7
f 211/17/5 140/18/5 139/155/5 212/156/5
f 213/199/7 212/198/7 139/197/7 138/200/7
f 137/170/3 214/171/3 213/172/3 138/173/3
f 137/200/7 136/201/7 215/202/7 214/199/7
f 215/17/5 136/18/5 135/155/5 216/156/5
f 217/203/7 216/202/7 135/201/7 134/204/7
f 133/170/3 218/171/3 217/172/3 134/173/3
f 133/204/7 132/205/7 219/206/7 218/203/7
f 219/17/5 132/18/5 131/155/5 220/156/5
f 221/154/7 220/206/7 131/205/7 130/151/7
f 129/170/3 179/171/3 221/172/3 130/173/3
f 169/170/3 182/171/3 230/172/3 170/173/3
f 230/167/7 229/207/7 171/208/7 170/164/7
f 228/17/5 172/18/5 171/155/5 229/156/5
f 173/146/7 172/208/7 228/207/7 227/209/7
f 175/170/3 222/171/3 181/172/3 176/173/3
f 175/158/7 14/145/7 13/225/7 222/157/7
f 82/231/7 81/9/7 32/2/7 31/232/7
f 82/21/5 31/22/5 30/233/5 83/234/5
f 84/88/7 83/231/7 30/232/7 29/89/7
f 28/235/3 79/230/3 84/236/3 29/237/3
f 78/21/5 27/22/5 77/233/5 85/234/5
f 86/238/7 85/87/7 77/90/7 76/239/7
f 75/240/3 87/230/3 86/236/3 76/241/3
f 88/8/7 87/238/7 75/239/7 74/5/7
f 88/21/5 74/22/5 73/233/5 89/234/5
f 90/242/7 89/8/7 73/5/7 72/243/7
f 71/22/3 91/230/3 90/236/3 72/233/3
f 92/244/7 91/242/7 71/243/7 70/245/7
f 92/21/5 70/22/5 69/233/5 93/234/5
f 94/246/7 93/244/7 69/245/7 68/247/7
f 67/22/3 95/230/3 94/236/3 68/233/3
f 96/248/7 95/246/7 67/247/7 66/249/7
f 96/21/5 66/22/5 65/233/5 97/234/5
f 98/250/7 97/248/7 65/249/7 64/251/7
f 63/22/3 99/230/3 98/236/3 64/233/3
f 100/252/7 99/250/7 63/251/7 62/253/7
f 100/21/5 62/22/5 61/233/5 101/234/5
f 102/254/7 101/252/7 61/253/7 60/255/7
f 59/22/3 103/230/3 102/236/3 60/233/3
f 104/256/7 103/254/7 59/255/7 58/257/7
f 104/21/5 58/22/5 57/233/5 105/234/5
f 106/258/7 105/256/7 57/257/7 56/259/7
f 55/22/3 107/230/3 106/236/3 56/233/3
f 108/260/7 107/258/7 55/259/7 54/261/7
f 108/21/5 54/22/5 53/233/5 109/234/5
f 110/262/7 109/260/7 53/261/7 52/263/7
f 51/22/3 111/230/3 110/236/3 52/233/3
f 112/264/7 111/262/7 51/263/7 50/265/7
f 112/21/5 50/22/5 49/233/5 113/234/5
f 114/266/7 113/264/7 49/265/7 48/267/7
f 47/22/3 115/230/3 114/236/3 48/233/3
f 116/268/7 115/266/7 47/267/7 46/269/7
f 116/21/5 46/22/5 45/233/5 117/234/5
f 118/270/7 117/268/7 45/269/7 44/271/7
f 43/22/3 119/230/3 118/236/3 44/233/3
f 120/272/7 119/270/7 43/271/7 42/273/7
f 120/21/5 42/22/5 41/233/5 121/234/5
f 122/274/7 121/272/7 41/273/7 40/275/7
f 39/22/3 123/230/3 122/236/3 40/233/3
f 124/276/7 123/274/7 39/275/7 38/277/7
f 124/21/5 38/22/5 37/233/5 125/234/5
f 126/278/7 125/276/7 37/277/7 36/279/7
f 35/22/3 127/230/3 126/236/3 36/233/3
f 35/279/7 18/1/7 17/144/7 127/278/7
